<?xml version="1.0" encoding="utf-8"?>
<!-- Generator: Adobe Illustrator 19.2.1, SVG Export Plug-In . SVG Version: 6.00 Build 0)  -->
<svg version="1.1" id="Layer_1" xmlns="http://www.w3.org/2000/svg" xmlns:xlink="http://www.w3.org/1999/xlink" x="0px" y="0px"
	 viewBox="0 0 300 300" style="enable-background:new 0 0 300 300;" xml:space="preserve">
<style type="text/css">
	.st0{fill:#FFFFFF;}
</style>
<g id="ZxG2A5.tif">
	<g>
		<g>
			<path class="st0" d="M-97.8,330.1c0-112.8,0-225.7,0-338.5c157.8,0,315.7,0,473.5,0c0,112.8,0,225.7,0,338.5
				C217.9,330.1,60,330.1-97.8,330.1z M76.4,289c0.4,0.2,0.8,0.5,1.2,0.7c48.5-63.4,96.9-126.8,146.1-191c-12.8,0-24.4,0-36.5,0
				c10.9-25.5,21.7-50.5,32.3-75.4c-0.4-0.3-0.4-0.4-0.5-0.4c-23-0.1-45.9-0.1-68.9-0.1c-0.7,0-1.8,0.6-2.1,1.3
				c-1.5,3.3-2.9,6.6-4.2,10c-2,5.3-3.8,10.8-6,16c-2.5,6-5.4,11.9-7.8,17.9c-3.9,9.7-7.6,19.6-11.5,29.4
				c-5.6,14-11.3,27.9-16.9,41.8c-0.9,2.2-1.6,4.5-2.5,7.3c14.5,0,28.4,0,42.7,0C119.8,194.3,98.1,241.7,76.4,289z"/>
			<path d="M76.4,289c21.7-47.4,43.4-94.7,65.3-142.5c-14.2,0-28.2,0-42.7,0c0.9-2.8,1.6-5.1,2.5-7.3c5.6-14,11.3-27.9,16.9-41.8
				c3.9-9.8,7.6-19.6,11.5-29.4c2.4-6,5.3-11.9,7.8-17.9c2.2-5.3,4-10.7,6-16c1.3-3.4,2.7-6.7,4.2-10c0.3-0.6,1.4-1.3,2.1-1.3
				c23,0,45.9,0,68.9,0.1c0.1,0,0.2,0.1,0.5,0.4c-10.7,24.9-21.4,49.9-32.3,75.4c12.1,0,23.7,0,36.5,0
				C174.5,163,126,226.4,77.6,289.8C77.2,289.5,76.8,289.3,76.4,289z"/>
		</g>
	</g>
</g>
</svg>
