<?xml version="1.0" encoding="utf-8"?>
<!-- Generator: Adobe Illustrator 19.2.1, SVG Export Plug-In . SVG Version: 6.00 Build 0)  -->
<svg version="1.1" id="Layer_1" xmlns="http://www.w3.org/2000/svg" xmlns:xlink="http://www.w3.org/1999/xlink" x="0px" y="0px"
	 viewBox="0 0 347 283.5" style="enable-background:new 0 0 347 283.5;" xml:space="preserve">
<style type="text/css">
	.st0{fill:#FFFFFF;}
</style>
<g>
	<g>
		<path class="st0" d="M209,153.8h-6.2v-14.5h-15.6v14.5H181v-33.2h6.2v14.3h15.6v-14.3h6.2V153.8z"/>
		<path class="st0" d="M239.4,120.6v4.9h-14.7v9.2h11.6v4.8h-11.6v9.4h14.7v4.9h-21v-33.2H239.4z"/>
		<path class="st0" d="M255.5,148.7h13.3v5.1h-19.5v-33.2h6.2V148.7z"/>
		<path class="st0" d="M284.7,153.8h-6.2v-33.2h6.2V153.8z"/>
	</g>
	<g>
		<g>
			<path class="st0" d="M321.2,153.9h6.2l-10.5-12.5c-1.6,0.7-3.4,1.1-5.2,1.2L321.2,153.9z"/>
			<path class="st0" d="M299.4,120.6h-6.2l11.9,14.1c1.7-0.6,3.5-0.9,5.4-1L299.4,120.6z"/>
		</g>
		<path class="st0" d="M310.6,135.5c-9.3,0-16.9,7.7-16.9,17.3v5.4c0-9.5,7.6-17.3,16.9-17.3c9.3,0,16.9-7.7,16.9-17.3v-5.4
			C327.5,127.8,320,135.5,310.6,135.5z"/>
	</g>
	<g>
		<path class="st0" d="M81.3,146.1c0.3,0,0.6,0.1,0.9,0.4l2.4,2.6c-1.3,1.6-3,2.9-4.9,3.8c-1.9,0.9-4.3,1.3-7,1.3
			c-2.4,0-4.6-0.4-6.5-1.2s-3.6-2-5-3.5c-1.4-1.5-2.4-3.2-3.1-5.3c-0.7-2-1.1-4.3-1.1-6.7c0-2.5,0.4-4.7,1.2-6.7
			c0.8-2,2-3.8,3.4-5.3c1.5-1.5,3.2-2.6,5.3-3.4c2.1-0.8,4.3-1.2,6.8-1.2c2.4,0,4.5,0.4,6.4,1.2c1.8,0.8,3.4,1.8,4.7,3.1l-2,2.8
			c-0.1,0.2-0.3,0.3-0.5,0.5s-0.4,0.2-0.8,0.2c-0.3,0-0.7-0.1-1.1-0.4s-0.8-0.6-1.4-0.9c-0.6-0.3-1.3-0.6-2.1-0.9
			c-0.9-0.3-1.9-0.4-3.2-0.4c-1.5,0-2.9,0.3-4.2,0.8c-1.3,0.5-2.4,1.3-3.3,2.3c-0.9,1-1.6,2.2-2.2,3.6c-0.5,1.4-0.8,3-0.8,4.8
			c0,1.8,0.3,3.5,0.8,4.9c0.5,1.4,1.2,2.6,2.1,3.6c0.9,1,1.9,1.7,3.1,2.2c1.2,0.5,2.5,0.8,3.9,0.8c0.8,0,1.6,0,2.2-0.1
			c0.7-0.1,1.3-0.2,1.9-0.4c0.6-0.2,1.1-0.4,1.6-0.8c0.5-0.3,1-0.7,1.5-1.1c0.1-0.1,0.3-0.2,0.5-0.3
			C80.9,146.2,81.1,146.1,81.3,146.1z"/>
		<path class="st0" d="M123.1,137.5c0,2.4-0.4,4.6-1.2,6.6s-1.9,3.8-3.4,5.3c-1.4,1.5-3.2,2.7-5.2,3.5c-2,0.8-4.3,1.3-6.7,1.3
			c-2.5,0-4.7-0.4-6.8-1.3s-3.8-2-5.2-3.5c-1.5-1.5-2.6-3.3-3.4-5.3c-0.8-2-1.2-4.3-1.2-6.6s0.4-4.6,1.2-6.6c0.8-2,1.9-3.8,3.4-5.3
			c1.5-1.5,3.2-2.7,5.2-3.5c2-0.8,4.3-1.3,6.8-1.3c2.5,0,4.7,0.4,6.7,1.3c2,0.8,3.8,2,5.2,3.5c1.4,1.5,2.6,3.2,3.4,5.3
			S123.1,135.1,123.1,137.5z M116.9,137.5c0-1.8-0.2-3.4-0.7-4.8c-0.5-1.4-1.2-2.6-2-3.6c-0.9-1-2-1.8-3.2-2.3
			c-1.3-0.5-2.7-0.8-4.3-0.8c-1.6,0-3,0.3-4.3,0.8c-1.3,0.5-2.4,1.3-3.3,2.3c-0.9,1-1.6,2.2-2.1,3.6c-0.5,1.4-0.7,3-0.7,4.8
			c0,1.8,0.2,3.4,0.7,4.8c0.5,1.4,1.2,2.6,2.1,3.6c0.9,1,2,1.7,3.3,2.3c1.3,0.5,2.7,0.8,4.3,0.8c1.6,0,3-0.3,4.3-0.8
			c1.3-0.5,2.4-1.3,3.2-2.3c0.9-1,1.6-2.2,2-3.6C116.6,140.9,116.9,139.3,116.9,137.5z"/>
	</g>
	<g>
		<path class="st0" d="M165.8,153.7v-19.5l-45.9-42.5c-6.9,2.2-11.1,3.3-16.8,3.9L165.8,153.7z"/>
		<path class="st0" d="M20.5,127.9l0,19.5l45,41.6c6.9-2.2,11.1-3.3,16.8-3.9L20.5,127.9z"/>
	</g>
	<g>
		<path class="st0" d="M93.1,71.9c-40.1,0-72.6,25.8-72.6,57.7v18.1c0-31.9,32.5-57.7,72.6-57.7c40.1,0,72.6-25.8,72.6-57.7V14.2
			C165.7,46,133.2,71.9,93.1,71.9z"/>
	</g>
	<g>
		<path class="st0" d="M93.1,193.6c-40.1,0-72.6,25.8-72.6,57.7v18.1c0-31.9,32.5-57.7,72.6-57.7c40.1,0,72.6-25.8,72.6-57.7v-18.1
			C165.7,167.7,133.2,193.6,93.1,193.6z"/>
	</g>
</g>
</svg>
